<svg id="businessman_1_" data-name="businessman (1)" xmlns="http://www.w3.org/2000/svg" width="55.302" height="45.576" viewBox="0 0 55.302 45.576">
  <path id="Path_104" data-name="Path 104" d="M195.9,47.753c3.338,0,6.044-2.981,6.047-6.654V38.787c0-3.675-2.707-6.654-6.047-6.654s-6.047,2.979-6.047,6.654V41.1C189.859,44.772,192.565,47.748,195.9,47.753Zm-4.454-8.965a4.475,4.475,0,1,1,8.909,0V41.1a4.475,4.475,0,1,1-8.909,0Zm0,0" transform="translate(-168.252 -28.11)" fill="#6b6876"/>
  <path id="Path_105" data-name="Path 105" d="M377.135,108.213,373.7,108.2h0a.776.776,0,0,0-.647.366.951.951,0,0,0-.107.792l.825,2.673a.806.806,0,0,0,.754.595h1.787a.807.807,0,0,0,.754-.593l.824-2.66a.951.951,0,0,0-.105-.792.777.777,0,0,0-.646-.368Zm-1.4,2.66h-.646l-.283-.916,1.212,0Zm0,0" transform="translate(-330.467 -94.652)" fill="#6b6876"/>
  <path id="Path_106" data-name="Path 106" d="M355.685,12.642a5.19,5.19,0,0,0,4.92-5.413V5.413a4.942,4.942,0,1,0-9.839,0V7.228A5.19,5.19,0,0,0,355.685,12.642Zm-3.327-7.228a3.342,3.342,0,1,1,6.653,0V7.228a3.342,3.342,0,1,1-6.653,0Zm0,0" transform="translate(-310.852)" fill="#6b6876"/>
  <path id="Path_107" data-name="Path 107" d="M75.135,108.213,71.7,108.2h0a.776.776,0,0,0-.647.366.951.951,0,0,0-.107.792l.825,2.673a.808.808,0,0,0,.754.595h1.786a.806.806,0,0,0,.754-.594l.825-2.66a.95.95,0,0,0-.105-.791.777.777,0,0,0-.646-.368Zm-1.4,2.66h-.646l-.283-.916,1.212,0Zm0,0" transform="translate(-62.832 -94.652)" fill="#6b6876"/>
  <path id="Path_108" data-name="Path 108" d="M53.685,12.642A5.19,5.19,0,0,0,58.6,7.228V5.413a4.942,4.942,0,1,0-9.839,0V7.228A5.19,5.19,0,0,0,53.685,12.642ZM50.359,5.413a3.342,3.342,0,1,1,6.653,0V7.228a3.342,3.342,0,1,1-6.653,0Zm0,0" transform="translate(-43.217)" fill="#6b6876"/>
  <path id="Path_109" data-name="Path 109" d="M50.182,105.578H48.816a.8.8,0,0,0-.748.576l-1.878,5.663-.048-.665a.831.831,0,0,0-.794-.806h-.7a.831.831,0,0,0-.794.806l-.069.953-2.193-5.978a.8.8,0,0,0-.738-.549H39.485a5.4,5.4,0,0,0-5.121,5.635v2H32.625a.815.815,0,0,0-.774.668l-2,9.012-.143-3.4a.836.836,0,0,0-.79-.836l-2.1-.017h-.006a.835.835,0,0,0-.8.836l-.169,4.013-2.4-9.631a.812.812,0,0,0-.768-.645H20.937v-2a5.4,5.4,0,0,0-5.121-5.635H14.451a.8.8,0,0,0-.748.576l-1.878,5.663-.048-.665a.831.831,0,0,0-.794-.806h-.7a.831.831,0,0,0-.794.806l-.069.953-2.193-5.978a.8.8,0,0,0-.739-.549H5.121A5.4,5.4,0,0,0,0,111.213v11.519a.839.839,0,0,0,.8.877H8.578L8.5,124.717a.909.909,0,0,0,.356.8l1.357.984a.737.737,0,0,0,.884-.006l1.324-.983a.909.909,0,0,0,.348-.8l-.08-1.109h1.852v11.214a.839.839,0,0,0,.8.876h10l0,.067a.906.906,0,0,0,.36.774l1.74,1.252a.737.737,0,0,0,.88-.005l1.7-1.252a.908.908,0,0,0,.353-.764l0-.071h9.614a.84.84,0,0,0,.8-.876V123.609h2.178l-.081,1.109a.908.908,0,0,0,.356.8l1.357.983a.736.736,0,0,0,.884-.006l1.324-.983a.91.91,0,0,0,.348-.8l-.081-1.109h7.455a.839.839,0,0,0,.8-.877V111.213a5.4,5.4,0,0,0-5.121-5.635ZM1.593,121.856V111.213a3.721,3.721,0,0,1,3.528-3.882h.828l3.183,8.681-.426,5.843Zm9.05,2.862-.52-.377.509-6.977.509,6.983Zm1.914-2.862-.426-5.845,2.878-8.679h.808a3.721,3.721,0,0,1,3.528,3.882v2.2a6.853,6.853,0,0,0-4.807,6.737v1.7Zm3.573,12.09V120.152a4.969,4.969,0,0,1,4.71-5.183h1.229l3.536,14.2-.2,4.779Zm11.728,2.061-.918-.66.628-14.944.579,0,.376,8.942.224,6Zm11.313-2.061H30.289l-.174-4.673-.008-.175L33.25,114.97h1.212a4.969,4.969,0,0,1,4.71,5.183Zm1.593-12.09v-1.7a6.853,6.853,0,0,0-4.807-6.737v-2.2a3.722,3.722,0,0,1,3.528-3.882h.828l3.183,8.682-.426,5.843H40.765Zm4.243,2.862-.52-.377L45,117.364l.509,6.983Zm8.7-2.862H46.922L46.5,116.01l2.878-8.679h.808a3.721,3.721,0,0,1,3.528,3.882Zm0,0" transform="translate(0 -92.358)" fill="#6b6876"/>
  <path id="Path_110" data-name="Path 110" d="M223.771,169.939l-4.376-.017h0a.783.783,0,0,0-.677.416.953.953,0,0,0-.035.853l1.138,2.5a.793.793,0,0,0,.706.485l2.1.017h.006a.792.792,0,0,0,.713-.485l1.138-2.5a.953.953,0,0,0-.034-.851A.783.783,0,0,0,223.771,169.939Zm-1.631,2.5-1.116-.009-.341-.75,1.8.007Zm0,0" transform="translate(-193.721 -148.646)" fill="#6b6876"/>
</svg>
