<svg id="claim" xmlns="http://www.w3.org/2000/svg" width="33.403" height="40.414" viewBox="0 0 33.403 40.414">
  <g id="Group_453" data-name="Group 453" transform="translate(4.75 11.724)">
    <g id="Group_452" data-name="Group 452">
      <path id="Path_115" data-name="Path 115" d="M120.788,148.522H105.773a1.187,1.187,0,1,0,0,2.373h15.016a1.187,1.187,0,0,0,0-2.373Z" transform="translate(-104.586 -148.522)" fill="#6b6876"/>
    </g>
  </g>
  <g id="Group_455" data-name="Group 455" transform="translate(4.75 16.301)">
    <g id="Group_454" data-name="Group 454">
      <path id="Path_116" data-name="Path 116" d="M120.788,206.515H105.773a1.187,1.187,0,0,0,0,2.373h15.016a1.187,1.187,0,0,0,0-2.373Z" transform="translate(-104.586 -206.515)" fill="#6b6876"/>
    </g>
  </g>
  <g id="Group_457" data-name="Group 457" transform="translate(4.75 21.062)">
    <g id="Group_456" data-name="Group 456">
      <path id="Path_117" data-name="Path 117" d="M120.788,266.824H105.773a1.187,1.187,0,1,0,0,2.373h15.016a1.187,1.187,0,1,0,0-2.373Z" transform="translate(-104.586 -266.824)" fill="#6b6876"/>
    </g>
  </g>
  <g id="Group_459" data-name="Group 459" transform="translate(4.75 25.786)">
    <g id="Group_458" data-name="Group 458">
      <path id="Path_118" data-name="Path 118" d="M111.811,326.673h-6.038a1.187,1.187,0,1,0,0,2.373h6.038a1.187,1.187,0,0,0,0-2.373Z" transform="translate(-104.587 -326.673)" fill="#6b6876"/>
    </g>
  </g>
  <g id="Group_461" data-name="Group 461">
    <g id="Group_460" data-name="Group 460">
      <path id="Path_119" data-name="Path 119" d="M71.3,25.1V3.346A3.349,3.349,0,0,0,67.955,0H52.272a1.2,1.2,0,0,0-.854.354L44.766,7a1.2,1.2,0,0,0-.354.854V31.63a3.349,3.349,0,0,0,3.346,3.346H62.752A7.7,7.7,0,1,0,71.3,25.1ZM51.086,4.042V6.671h-2.63ZM62.414,32.6H47.758a.973.973,0,0,1-.972-.972V9.045h5.487a1.187,1.187,0,0,0,1.187-1.187c0-.009,0-.018,0-.028s0-.018,0-.028V2.373h14.5a.973.973,0,0,1,.972.972V25.1A7.713,7.713,0,0,0,62.414,32.6Zm7.7,5.439a5.328,5.328,0,1,1,5.328-5.328A5.334,5.334,0,0,1,70.114,38.041Z" transform="translate(-44.412)" fill="#6b6876"/>
    </g>
  </g>
  <g id="Group_463" data-name="Group 463" transform="translate(24.515 28.521)">
    <g id="Group_462" data-name="Group 462">
      <path id="Path_120" data-name="Path 120" d="M356.176,361.329a1.187,1.187,0,0,0-1.187,1.187v3.005a1.187,1.187,0,1,0,2.373,0v-3.005A1.187,1.187,0,0,0,356.176,361.329Z" transform="translate(-354.989 -361.329)" fill="#6b6876"/>
    </g>
  </g>
  <g id="Group_465" data-name="Group 465" transform="translate(24.516 34.667)">
    <g id="Group_464" data-name="Group 464">
      <path id="Path_121" data-name="Path 121" d="M357.36,440.258a1.1,1.1,0,0,0-.017-.115.931.931,0,0,0-.029-.113c-.011-.036-.025-.074-.039-.109s-.032-.071-.05-.105-.038-.067-.059-.1a1.145,1.145,0,0,0-.07-.093,1.17,1.17,0,0,0-.078-.087,1.1,1.1,0,0,0-.18-.147c-.032-.021-.066-.042-.1-.06a1.315,1.315,0,0,0-.214-.089c-.037-.011-.074-.021-.112-.028s-.077-.013-.116-.017a1.147,1.147,0,0,0-.233,0c-.038,0-.077.01-.115.017s-.076.017-.113.028a1.026,1.026,0,0,0-.109.04,1.053,1.053,0,0,0-.105.049c-.034.018-.067.039-.1.06a1,1,0,0,0-.093.069,1.109,1.109,0,0,0-.165.165c-.025.03-.047.061-.07.093s-.041.066-.059.1a1.034,1.034,0,0,0-.049.105,1.13,1.13,0,0,0-.04.109c-.011.037-.021.075-.029.113a1.137,1.137,0,0,0-.017.115,1.157,1.157,0,0,0-.006.117c0,.039,0,.078.006.116a1.12,1.12,0,0,0,.017.116c.008.038.017.076.029.112a1.064,1.064,0,0,0,.04.109.978.978,0,0,0,.049.105,1.112,1.112,0,0,0,.059.1c.022.033.045.064.07.094a1.23,1.23,0,0,0,.259.234q.049.032.1.06c.034.018.07.035.105.05s.072.028.109.039a.959.959,0,0,0,.113.028c.038.008.077.013.115.017a1.159,1.159,0,0,0,.117.006,1.145,1.145,0,0,0,.116-.006,1.1,1.1,0,0,0,.116-.017.938.938,0,0,0,.112-.028c.037-.011.074-.025.109-.039s.071-.032.105-.05a1.185,1.185,0,0,0,.194-.129.99.99,0,0,0,.086-.078,1,1,0,0,0,.078-.086,1.131,1.131,0,0,0,.07-.094,1.143,1.143,0,0,0,.059-.1c.018-.034.035-.069.05-.105s.028-.072.039-.109a.9.9,0,0,0,.028-.112,1.13,1.13,0,0,0,.018-.349Z" transform="translate(-354.993 -439.188)" fill="#6b6876"/>
    </g>
  </g>
</svg>
