<svg xmlns="http://www.w3.org/2000/svg" width="40.414" height="40.415" viewBox="0 0 40.414 40.415">
  <g id="Group_1036" data-name="Group 1036" transform="translate(-76.865 -904)">
    <g id="trophy" transform="translate(76.865 904)">
      <path id="Path_111" data-name="Path 111" d="M200.311,70.377,198.2,70.06l-.952-1.905a1.184,1.184,0,0,0-2.118,0l-.953,1.905-2.106.317a1.184,1.184,0,0,0-.655,2.014l1.517,1.495-.349,2.1a1.184,1.184,0,0,0,1.714,1.245l1.89-.981,1.89.981a1.184,1.184,0,0,0,1.714-1.245l-.349-2.1,1.517-1.495a1.184,1.184,0,0,0-.654-2.014Zm-2.963,2.253a1.444,1.444,0,0,0-.275,1.409l-.334-.173a1.184,1.184,0,0,0-1.091,0l-.334.173a1.414,1.414,0,0,0-.544-1.673l.379-.057c.779-.122.94-.829,1.044-.977l.168.337a1.445,1.445,0,0,0,1.255.7Z" transform="translate(-175.986 -62.172)" fill="#6b6876"/>
      <path id="Path_112" data-name="Path 112" d="M39.231,2.368H33.216q.014-.588.015-1.184A1.184,1.184,0,0,0,32.047,0H8.367A1.184,1.184,0,0,0,7.183,1.184q0,.6.015,1.184H1.184A1.184,1.184,0,0,0,0,3.552v3A12.444,12.444,0,0,0,11.845,18.929a11.814,11.814,0,0,0,4.79,4,17.33,17.33,0,0,1-2.158,7.455A15.491,15.491,0,0,1,12.266,33.5h0a1.194,1.194,0,0,0-.347.837v3.71H10.735a1.184,1.184,0,1,0,0,2.368H29.679a1.184,1.184,0,1,0,0-2.368H28.5v-3.71a1.2,1.2,0,0,0-.347-.837h0a17.358,17.358,0,0,1-4.369-10.57,11.812,11.812,0,0,0,4.79-4A12.444,12.444,0,0,0,40.415,6.551v-3a1.184,1.184,0,0,0-1.184-1.184ZM2.368,6.551V4.736H7.317a31.389,31.389,0,0,0,2.95,11.6,10.06,10.06,0,0,1-7.9-9.784Zm11.919,31.5V35.521h11.84v2.526ZM22.214,20.99a1.184,1.184,0,0,0-.823,1.128,19.644,19.644,0,0,0,3.467,11.035h-9.3a19.644,19.644,0,0,0,3.467-11.035A1.184,1.184,0,0,0,18.2,20.99c-2.808-.9-4.782-3.509-6.051-6.2A31.369,31.369,0,0,1,9.566,2.368H30.848a31.367,31.367,0,0,1-2.583,12.427c-1.256,2.66-3.227,5.291-6.051,6.2ZM38.047,6.551a10.06,10.06,0,0,1-7.9,9.784,31.387,31.387,0,0,0,2.95-11.6h4.949Z" fill="#6b6876"/>
    </g>
    <g id="trophy-2" data-name="trophy" transform="translate(91.947 909.328)">
      <path id="Path_111-2" data-name="Path 111" d="M200.311,70.377,198.2,70.06l-.952-1.905a1.184,1.184,0,0,0-2.118,0l-.953,1.905-2.106.317a1.184,1.184,0,0,0-.655,2.014l1.517,1.495-.349,2.1a1.184,1.184,0,0,0,1.714,1.245l1.89-.981,1.89.981a1.184,1.184,0,0,0,1.714-1.245l-.349-2.1,1.517-1.495a1.184,1.184,0,0,0-.654-2.014Zm-2.963,2.253a1.444,1.444,0,0,0-.275,1.409l-.334-.173a1.184,1.184,0,0,0-1.091,0l-.334.173a1.414,1.414,0,0,0-.544-1.673l.379-.057c.779-.122.94-.829,1.044-.977l.168.337a1.445,1.445,0,0,0,1.255.7Z" transform="translate(-191.068 -67.5)" fill="#6b6876"/>
    </g>
  </g>
</svg>
