<svg id="insurance" xmlns="http://www.w3.org/2000/svg" width="34.513" height="45.309" viewBox="0 0 34.513 45.309">
  <path id="Path_101" data-name="Path 101" d="M95.123,9.238,86.274.389A1.327,1.327,0,0,0,85.336,0H65.867A4.873,4.873,0,0,0,61,4.867V40.441a4.873,4.873,0,0,0,4.867,4.867H90.645a4.873,4.873,0,0,0,4.867-4.867V10.177A1.327,1.327,0,0,0,95.123,9.238Zm-8.46-4.706L90.98,8.849H86.663Zm3.982,38.122H65.867a2.215,2.215,0,0,1-2.212-2.212V4.867a2.215,2.215,0,0,1,2.212-2.212H84.008v7.522A1.327,1.327,0,0,0,85.336,11.5h7.522V40.441A2.215,2.215,0,0,1,90.645,42.654Z" transform="translate(-61)" fill="#6b6876"/>
  <path id="Path_102" data-name="Path 102" d="M160.026,165.54a4.376,4.376,0,0,1-3.935-2.432l-.187-.374a1.327,1.327,0,0,0-1.187-.734h-7.079a1.327,1.327,0,0,0-1.187.734l-.187.374a4.376,4.376,0,0,1-3.935,2.432A1.327,1.327,0,0,0,141,166.867v7.575a13.745,13.745,0,0,0,9.8,13.165,1.326,1.326,0,0,0,.763,0,13.745,13.745,0,0,0,9.8-13.165v-7.575A1.327,1.327,0,0,0,160.026,165.54Zm-1.327,8.9a11.018,11.018,0,0,1-7.522,10.5,11.018,11.018,0,0,1-7.522-10.5v-6.371a7,7,0,0,0,4.79-3.416h5.464a7,7,0,0,0,4.79,3.416Z" transform="translate(-133.921 -147.664)" fill="#6b6876"/>
  <path id="Path_103" data-name="Path 103" d="M206.471,264.1l-4.067,4.067-1.564-1.564a1.327,1.327,0,1,0-1.877,1.877l2.5,2.5a1.327,1.327,0,0,0,1.877,0l5.006-5.006a1.327,1.327,0,0,0-1.877-1.877Z" transform="translate(-186.399 -240.378)" fill="#6b6876"/>
</svg>
