<svg xmlns="http://www.w3.org/2000/svg" width="49.72" height="47.289" viewBox="0 0 49.72 47.289">
  <path id="verify" d="M22.832,3.066,29.923,0l3.888,6.615L41.352,8.3l-.744,7.638,5.108,5.8-5.089,5.744.744,7.694-7.515,1.656L29.923,43.48l-7.039-3.069L15.793,43.48l-3.888-6.619L4.364,35.176l.744-7.642L0,21.738,5.089,16,4.364,8.3l7.5-1.656L15.793,0Zm-8.9,20.949c-2.258-2.429,1.209-6.049,3.72-3.758.885.807,2.173,1.987,3.066,2.787L27.6,14.576c2.4-2.474,6.18,1.161,3.813,3.653L22.769,28.543a2.653,2.653,0,0,1-3.687.164C17.616,27.311,15.466,25.3,13.929,24.015Z" transform="translate(2.002 1.904)" fill="none" stroke="#767380" stroke-width="3" fillRule="evenodd"/>
</svg>
